<?xml version="1.0" encoding="utf-8"?>
<!-- Generator: Adobe Illustrator 16.0.0, SVG Export Plug-In . SVG Version: 6.00 Build 0)  -->
<!DOCTYPE svg PUBLIC "-//W3C//DTD SVG 1.1//EN" "http://www.w3.org/Graphics/SVG/1.1/DTD/svg11.dtd">
<svg version="1.1" id="Layer_1" xmlns="http://www.w3.org/2000/svg" xmlns:xlink="http://www.w3.org/1999/xlink" x="0px" y="0px"
	 width="24px" height="24px" viewBox="0 0 24 24" enable-background="new 0 0 24 24" xml:space="preserve">
<path d="M2.975,1c1.091,0,1.974,0.884,1.974,1.975S4.065,4.948,2.975,4.948S1,4.065,1,2.975S1.884,1,2.975,1z M17.359,23h-6.77
	c-3.116,0-5.642-2.525-5.642-5.641v-6.77c0-3.116,2.525-5.642,5.642-5.642h6.77C20.475,4.948,23,7.474,23,10.59v6.77
	C23,20.475,20.475,23,17.359,23z M17.077,12.846c-2.337,0-4.231,1.895-4.231,4.231s1.895,4.23,4.231,4.23s4.23-1.894,4.23-4.23
	S19.414,12.846,17.077,12.846z M9.743,7.205c-1.401,0-2.538,1.137-2.538,2.538c0,1.402,1.137,2.539,2.538,2.539
	c1.402,0,2.539-1.137,2.539-2.539C12.282,8.342,11.146,7.205,9.743,7.205z"/>
</svg>
